<?xml version="1.0" encoding="UTF-8"?>
<svg version="1.1" xmlns="http://www.w3.org/2000/svg" width="512" height="512">
<path d="M0 0 C23.10533133 20.21627979 38.06595185 49.01679146 40.46826172 79.79638672 C40.87608916 88.27155072 40.72347318 96.58915351 39.78076172 105.01904297 C39.70059814 105.73842041 39.62043457 106.45779785 39.5378418 107.19897461 C38.97790502 111.65761744 37.91856798 115.62460206 36.46826172 119.89404297 C35.36795726 123.89268143 35.36795726 123.89268143 36.83154297 127.60107422 C38.19449535 129.0732813 39.61318682 130.49493193 41.06982422 131.87451172 C50.03766061 140.82846601 55.71842915 152.85693923 60.59326172 164.39404297 C60.95419922 165.24482422 61.31513672 166.09560547 61.68701172 166.97216797 C63.04601349 170.3696724 63.59326172 172.67813511 63.59326172 176.39404297 C64.47884766 175.93513672 65.36443359 175.47623047 66.27685547 175.00341797 C86.46354482 164.8617269 108.6634253 161.78697687 130.59326172 168.39404297 C140.66154838 171.89160185 149.32316125 176.61527209 157.59326172 183.39404297 C158.29708984 183.93544922 159.00091797 184.47685547 159.72607422 185.03466797 C174.86930045 197.26801935 184.43451659 217.2477894 186.59326172 236.39404297 C188.25045083 261.7898907 181.56930339 283.29589013 164.66357422 302.59716797 C150.98868923 316.98600278 131.96749227 325.92882586 112.16402435 326.75863457 C104.8980711 326.94035091 97.6330934 326.93206109 90.36562157 326.9022826 C86.54830254 326.89106598 82.73104201 326.90315014 78.91372681 326.91212463 C71.45750586 326.92598552 64.00145543 326.91855495 56.54524276 326.90344905 C47.84865643 326.88650688 39.15211161 326.88980936 30.45551386 326.89354313 C14.93368721 326.89940825 -0.58805807 326.88530139 -16.10986328 326.8605957 C-31.14830574 326.83666232 -46.18663957 326.82959964 -61.22509766 326.84008789 C-77.63409993 326.85151163 -94.0430521 326.85341046 -110.45205379 326.83898979 C-112.20339504 326.83746407 -113.95473631 326.83594371 -115.70607758 326.83442879 C-116.56759985 326.83367097 -117.42912213 326.83291316 -118.31675114 326.83213238 C-124.36967571 326.8274021 -130.4225778 326.82923193 -136.47550201 326.83349419 C-143.85512573 326.83843387 -151.23464702 326.83237816 -158.61424735 326.81259989 C-162.37478912 326.80276736 -166.13517533 326.79757888 -169.89572525 326.8054924 C-173.98086138 326.81391282 -178.06558707 326.79889483 -182.1506958 326.78172302 C-183.32658555 326.78773307 -184.5024753 326.79374311 -185.71399808 326.79993528 C-204.43770778 326.65728738 -220.32907047 319.35259607 -233.58642578 306.23779297 C-248.32219081 290.44550139 -252.28511729 272.06950335 -251.58154297 251.12597656 C-250.55821204 235.13285768 -242.59153269 221.4645124 -231.40673828 210.39404297 C-230.4109375 209.34796875 -230.4109375 209.34796875 -229.39501953 208.28076172 C-219.88702703 198.95387383 -207.46892541 194.08053159 -194.61376953 191.47607422 C-190.79485123 190.1875963 -189.12907881 188.30189223 -186.40673828 185.39404297 C-182.46782965 184.2686405 -180.35839324 184.02165624 -176.53173828 185.51904297 C-173.99733696 187.75527943 -173.67537414 189.08086742 -173.40673828 192.39404297 C-171.75673828 192.39404297 -170.10673828 192.39404297 -168.40673828 192.39404297 C-167.90106099 189.83254669 -167.40203697 187.27004832 -166.90673828 184.70654297 C-166.76365234 183.9853125 -166.62056641 183.26408203 -166.47314453 182.52099609 C-166.08229126 180.48297549 -165.73535255 178.44290917 -165.40673828 176.39404297 C-165.26365234 175.53810547 -165.12056641 174.68216797 -164.97314453 173.80029297 C-165.67133181 169.92566808 -168.32125846 167.45537822 -170.84423828 164.58154297 C-180.85537017 152.59394538 -187.85208467 139.32572156 -192.40673828 124.39404297 C-192.6170166 123.71664062 -192.82729492 123.03923828 -193.04394531 122.34130859 C-199.2175976 101.43985399 -198.8575856 76.17516336 -192.40673828 55.39404297 C-192.19774902 54.70890625 -191.98875977 54.02376953 -191.7734375 53.31787109 C-187.11705864 38.5709274 -179.62953809 25.00365671 -169.40673828 13.39404297 C-168.72095703 12.57677734 -168.03517578 11.75951172 -167.32861328 10.91748047 C-149.10312976 -10.25817124 -122.09160672 -24.73630253 -94.28564453 -28.32080078 C-59.14998359 -30.90378492 -27.06788279 -23.16562967 0 0 Z " fill="#26A2B8" transform="translate(291.40673828125,86.60595703125)"/>
<path d="M0 0 C23.10533133 20.21627979 38.06595185 49.01679146 40.46826172 79.79638672 C41.19572694 94.91402337 40.28080665 109.92515427 35.59326172 124.39404297 C32.59326172 124.39404297 32.59326172 124.39404297 31.22607422 123.17919922 C30.72849609 122.61072266 30.23091797 122.04224609 29.71826172 121.45654297 C10.38544364 101.43902092 -20.51365489 90.72312866 -47.78857422 90.22753906 C-56.17632023 90.15317348 -64.17960253 90.62376461 -72.40673828 92.39404297 C-73.09815918 92.53938477 -73.78958008 92.68472656 -74.50195312 92.83447266 C-105.82661818 99.61505472 -132.04884948 117.72885811 -149.80151367 144.49609375 C-154.05660498 151.14598089 -157.30097918 158.1445257 -160.40673828 165.39404297 C-160.6892041 166.05146484 -160.97166992 166.70888672 -161.26269531 167.38623047 C-161.97924869 169.05469842 -162.69324804 170.72426283 -163.40673828 172.39404297 C-177.2601974 158.75855785 -186.74028633 142.97056858 -192.40673828 124.39404297 C-192.6170166 123.71664062 -192.82729492 123.03923828 -193.04394531 122.34130859 C-199.2175976 101.43985399 -198.8575856 76.17516336 -192.40673828 55.39404297 C-192.19774902 54.70890625 -191.98875977 54.02376953 -191.7734375 53.31787109 C-187.11705864 38.5709274 -179.62953809 25.00365671 -169.40673828 13.39404297 C-168.72095703 12.57677734 -168.03517578 11.75951172 -167.32861328 10.91748047 C-149.10312976 -10.25817124 -122.09160672 -24.73630253 -94.28564453 -28.32080078 C-59.14998359 -30.90378492 -27.06788279 -23.16562967 0 0 Z " fill="#F9BD02" transform="translate(291.40673828125,86.60595703125)"/>
<path d="M0 0 C35.0142562 0.05654093 64.35115444 11.48058235 89.70117188 35.69287109 C111.93821894 58.74505918 123.38530653 89.64154436 123.10742188 121.52880859 C122.6663927 132.40017767 121.31460424 142.99857651 117.95117188 153.38037109 C114.95117188 153.38037109 114.95117188 153.38037109 113.58398438 152.16552734 C113.08640625 151.59705078 112.58882812 151.02857422 112.07617188 150.44287109 C92.7433538 130.42534904 61.84425527 119.70945679 34.56933594 119.21386719 C26.18158992 119.1395016 18.17830762 119.61009273 9.95117188 121.38037109 C9.25975098 121.52571289 8.56833008 121.67105469 7.85595703 121.82080078 C-23.46870803 128.60138285 -49.69093933 146.71518623 -67.44360352 173.48242188 C-71.69869482 180.13230902 -74.94306902 187.13085382 -78.04882812 194.38037109 C-78.33129395 195.03779297 -78.61375977 195.69521484 -78.90478516 196.37255859 C-79.62133853 198.04102654 -80.33533789 199.71059095 -81.04882812 201.38037109 C-83.11132813 199.88037109 -83.11132813 199.88037109 -85.04882812 197.38037109 C-85.04882812 194.40764415 -84.71631644 192.24664446 -84.04882812 189.38037109 C-83.82066406 188.31689453 -83.5925 187.25341797 -83.35742188 186.15771484 C-76.11895377 155.80808399 -57.06964625 130.34907522 -31.04882812 113.38037109 C-11.1165516 101.15423481 9.07810617 96.03306643 32.26367188 95.94287109 C32.93677399 95.93669769 33.6098761 95.93052429 34.30337524 95.92416382 C47.12584714 95.84854096 59.02610236 98.06950273 71.13867188 102.19287109 C71.8926123 102.44568848 72.64655273 102.69850586 73.42333984 102.95898438 C79.6413174 105.11857726 85.3533207 107.90329173 90.95117188 111.38037109 C90.89010581 93.21321557 84.98433501 75.98573946 75.95117188 60.38037109 C75.60183594 59.77112793 75.2525 59.16188477 74.89257812 58.53417969 C69.60781494 49.46732637 63.3611483 41.79034752 55.95117188 34.38037109 C55.149375 33.57857422 54.34757813 32.77677734 53.52148438 31.95068359 C36.5363674 15.85658915 13.08198303 5.26633822 -10.04882812 2.38037109 C-7.03087045 -0.63758658 -4.13249914 0.05946512 0 0 Z " fill="#F49A1C" transform="translate(209.048828125,57.61962890625)"/>
<path d="M0 0 C1.17949219 0.96679688 1.17949219 0.96679688 2.3828125 1.953125 C3.08664062 2.49453125 3.79046875 3.0359375 4.515625 3.59375 C19.65885123 15.82710138 29.22406737 35.80687143 31.3828125 54.953125 C33.04000161 80.34897273 26.35885417 101.85497217 9.453125 121.15625 C-3.70600783 135.00240583 -22.56110911 144.43565335 -41.75244141 145.27026367 C-47.20955023 145.39048608 -52.66050018 145.30486798 -58.1171875 145.203125 C-60.01951215 145.18300145 -61.9218577 145.16476117 -63.82421875 145.1484375 C-68.42240411 145.10496962 -73.01955564 145.03627638 -77.6171875 144.953125 C-77.6171875 144.623125 -77.6171875 144.293125 -77.6171875 143.953125 C-76.575625 143.81777344 -75.5340625 143.68242187 -74.4609375 143.54296875 C-52.95277012 140.44289756 -33.87761731 130.56463334 -20.6171875 112.953125 C-7.25425205 93.01815966 -2.31938014 70.33794763 -6.6796875 46.640625 C-11.77475113 26.5936924 -23.33174646 8.90159457 -40.9296875 -2.359375 C-48.81900288 -6.9402678 -57.54082554 -11.57365953 -66.6171875 -13.046875 C-66.2871875 -13.706875 -65.9571875 -14.366875 -65.6171875 -15.046875 C-43.37703136 -20.52786135 -17.76589798 -13.8945232 0 0 Z " fill="#168AA5" transform="translate(446.6171875,268.046875)"/>
<path d="M0 0 C1.62135318 1.45119617 3.2294948 2.91746912 4.81640625 4.40625 C6.73061403 6.18107372 8.67073143 7.83167533 10.68359375 9.48828125 C14.18663446 12.48126642 16.92253789 15.72451977 19.60546875 19.45703125 C20.07025635 20.09866211 20.53504395 20.74029297 21.01391602 21.40136719 C29.02683123 32.75584435 35.66333732 45.37600555 39.04296875 58.89453125 C37.84553006 62.94740067 35.08394204 64.33996605 31.734375 66.76171875 C16.36005193 78.32244218 11.10284952 97.51785647 8.23046875 115.64453125 C1.36932237 109.7664745 -2.02927836 98.43356557 -2.76953125 89.64453125 C-3.2978727 80.56324808 -3.59733338 71.82992888 -0.328125 63.19921875 C1.08146682 56.75255408 -1.13859828 50.82288838 -3.76953125 45.01953125 C-4.07713379 44.33221924 -4.38473633 43.64490723 -4.70166016 42.93676758 C-17.56626341 15.10610798 -41.47139832 -8.18235559 -70.29248047 -18.96362305 C-77.99002659 -21.69066933 -85.75550654 -23.76660124 -93.76953125 -25.35546875 C-93.76953125 -25.68546875 -93.76953125 -26.01546875 -93.76953125 -26.35546875 C-60.33090591 -31.30933917 -25.80478484 -21.94680572 0 0 Z " fill="#178AA4" transform="translate(316.76953125,203.35546875)"/>
<path d="M0 0 C4.28151959 3.72084441 6.88633925 8.36513897 9.75 13.1875 C10.2764209 14.07300537 10.8028418 14.95851074 11.34521484 15.87084961 C27.58969756 43.59354402 27.58969756 43.59354402 25.5 56.6875 C23.60116168 63.52331796 18.84388244 69.10407838 13 73 C6.34439024 76.26859127 -2.36889738 76.13796923 -9.51171875 74.3828125 C-16.06541612 71.47291936 -21.14687088 65.59570182 -23.9375 59.0625 C-27.43344524 47.71716828 -22.72591094 38.14917765 -17.5 28.140625 C-5.25928102 5.25928102 -5.25928102 5.25928102 0 0 Z " fill="#25A2B9" transform="translate(327,437)"/>
<path d="M0 0 C4.64765251 4.18033828 7.64820099 8.88771723 10.8125 14.25 C11.33368408 15.12591797 11.85486816 16.00183594 12.3918457 16.90429688 C27.38923941 42.5045314 27.38923941 42.5045314 26 56 C23.82284941 64.07906485 18.90136408 69.53179007 11.9375 73.9375 C4.56670029 76.57704314 -4.41189532 76.17409831 -11.5 73 C-17.83396109 69.3329699 -21.68759628 63.87554705 -24 57 C-27.20932716 36.86360214 -10.73652625 15.79973458 0 0 Z " fill="#25A2B8" transform="translate(174,437)"/>
<path d="M0 0 C4.28151959 3.72084441 6.88633925 8.36513897 9.75 13.1875 C10.2764209 14.07300537 10.8028418 14.95851074 11.34521484 15.87084961 C27.58969756 43.59354402 27.58969756 43.59354402 25.5 56.6875 C23.60116168 63.52331796 18.84388244 69.10407838 13 73 C8.74554575 75.15026569 4.85703818 75.2411799 0.1875 75.125 C-0.50537109 75.11597656 -1.19824219 75.10695313 -1.91210938 75.09765625 C-3.60822395 75.07426157 -5.30415871 75.03839641 -7 75 C-7 74.34 -7 73.68 -7 73 C-6.48050781 72.78085937 -5.96101563 72.56171875 -5.42578125 72.3359375 C0.96372327 69.43054358 4.35625576 65.94740346 7.8125 59.75 C10.89065502 50.02951046 8.4377151 41.92874248 4 33 C1.60295807 28.55638141 -0.86365811 24.15193503 -3.42895508 19.80322266 C-3.90357178 18.97999512 -4.37818848 18.15676758 -4.8671875 17.30859375 C-5.30144043 16.57439209 -5.73569336 15.84019043 -6.18310547 15.08374023 C-7.17201994 12.56121034 -6.95917489 11.49710064 -6 9 C-5.03350353 7.38292557 -4.00864412 5.79974043 -2.9375 4.25 C-2.38964844 3.45078125 -1.84179688 2.6515625 -1.27734375 1.828125 C-0.85582031 1.22484375 -0.43429687 0.6215625 0 0 Z " fill="#168BA6" transform="translate(327,437)"/>
<path d="M0 0 C5.63612641 5.63612641 5.63612641 5.63612641 7.83203125 9.265625 C8.31696045 10.06548828 8.80188965 10.86535156 9.30151367 11.68945312 C9.80013916 12.53443359 10.29876465 13.37941406 10.8125 14.25 C11.33368408 15.12591797 11.85486816 16.00183594 12.3918457 16.90429688 C27.38923941 42.5045314 27.38923941 42.5045314 26 56 C23.82284941 64.07906485 18.90136408 69.53179007 11.9375 73.9375 C6.35185792 76.04820346 -0.14215359 75.21936457 -6 75 C-6 74.34 -6 73.68 -6 73 C-4.6696875 72.4121875 -4.6696875 72.4121875 -3.3125 71.8125 C2.30395087 68.73934764 6.96032507 64.18343557 9 58 C11.6535176 41.82617845 2.32210684 27.20058327 -6 14 C-6.66 13.34 -7.32 12.68 -8 12 C-5.36 8.04 -2.72 4.08 0 0 Z " fill="#168BA5" transform="translate(174,437)"/>
<path d="M0 0 C3.27155869 2.36665948 4.70646942 3.89926032 5.75 7.8125 C3.90206405 15.66622777 -5.08832931 22.32746353 -10.625 27.9375 C-11.36234375 28.70384766 -12.0996875 29.47019531 -12.859375 30.25976562 C-13.57867187 30.98744141 -14.29796875 31.71511719 -15.0390625 32.46484375 C-15.68053223 33.120896 -16.32200195 33.77694824 -16.98291016 34.45288086 C-19.36080887 36.27674241 -21.03670226 36.71049617 -24 37 C-26.96434289 36.22362448 -28.60867152 35.37783439 -30.8125 33.25 C-32.49528285 30.06156933 -32.68861443 28.58079506 -32 25 C-27.59569424 19.00104607 -21.95248825 13.7982112 -16.6875 8.5625 C-15.97271484 7.84384766 -15.25792969 7.12519531 -14.52148438 6.38476562 C-13.83763672 5.70220703 -13.15378906 5.01964844 -12.44921875 4.31640625 C-11.83393311 3.70224854 -11.21864746 3.08809082 -10.5847168 2.45532227 C-7.27304692 -0.58594474 -4.38000605 -0.44542434 0 0 Z " fill="#F9BE01" transform="translate(340,45)"/>
<path d="M0 0 C3.88248638 0.71178917 4.677204 1.18172978 7.45703125 3.7109375 C8.15425293 4.34459229 8.85147461 4.97824707 9.56982422 5.63110352 C13.170715 9.02755402 16.69721958 12.49020264 20.1875 16 C20.90615234 16.71478516 21.62480469 17.42957031 22.36523438 18.16601562 C23.04779297 18.84986328 23.73035156 19.53371094 24.43359375 20.23828125 C25.04775146 20.85356689 25.66190918 21.46885254 26.29467773 22.1027832 C28.52898643 24.53574709 28.74927715 25.67969318 29.0625 29.0625 C28.75 32.6875 28.75 32.6875 27.0625 35.0625 C24.41289173 36.92438689 22.99286253 37.61028899 19.75 37.6875 C15.33587036 35.81070317 12.2451601 33.56666368 8.859375 30.1953125 C7.98539063 29.32519531 7.11140625 28.45507812 6.2109375 27.55859375 C5.31632812 26.65238281 4.42171875 25.74617188 3.5 24.8125 C2.13488281 23.46478516 2.13488281 23.46478516 0.7421875 22.08984375 C-0.12664062 21.21714844 -0.99546875 20.34445313 -1.890625 19.4453125 C-2.67985352 18.6527002 -3.46908203 17.86008789 -4.28222656 17.04345703 C-6.9177321 13.88804407 -8.3272244 11.27060013 -8.125 7.125 C-6.52421585 2.66567271 -4.64600112 0.98280793 0 0 Z " fill="#FABE01" transform="translate(89.25,44.3125)"/>
<path d="M0 0 C1.7624707 0.47566406 1.7624707 0.47566406 3.56054688 0.9609375 C15.97120676 4.36306014 15.97120676 4.36306014 18.8125 8.625 C19.36576308 12.89302947 19.23687795 14.94599528 16.9375 18.625 C12.39712227 21.53084174 8.98529152 20.50685342 3.8125 19.625 C-0.52409041 18.6683891 -4.78896687 17.51727264 -9.0625 16.3125 C-10.17625 16.01666016 -11.29 15.72082031 -12.4375 15.41601562 C-13.50742187 15.11759766 -14.57734375 14.81917969 -15.6796875 14.51171875 C-17.12384033 14.11279419 -17.12384033 14.11279419 -18.59716797 13.70581055 C-21.55480812 12.47174147 -23.13332342 11.06290756 -25.1875 8.625 C-25.97060284 5.85983688 -25.83966817 3.41673745 -25.1875 0.625 C-18.75156418 -7.17613433 -8.21234568 -2.2930871 0 0 Z " fill="#FABE01" transform="translate(371.1875,209.375)"/>
<path d="M0 0 C3.38677089 2.45000447 4.78698584 3.86392446 5.5625 8 C4.85644512 11.76562603 3.65710571 13.25348561 1 16 C-2.02099609 17.30200195 -2.02099609 17.30200195 -5.5234375 18.23828125 C-7.42609375 18.75551758 -7.42609375 18.75551758 -9.3671875 19.28320312 C-10.02557617 19.45215088 -10.68396484 19.62109863 -11.36230469 19.79516602 C-13.36716266 20.31048553 -15.3630932 20.85288821 -17.359375 21.40039062 C-28.75056265 24.43303439 -28.75056265 24.43303439 -34 24 C-36.875 21.9375 -36.875 21.9375 -39 19 C-39.58722063 15.28093602 -39.77915797 13.13152998 -37.609375 9.98046875 C-33.68936137 7.00524882 -29.40399696 6.10200334 -24.6875 4.875 C-23.76259766 4.62363281 -22.83769531 4.37226562 -21.88476562 4.11328125 C-20.08067731 3.62347191 -18.275043 3.13931478 -16.46777344 2.66137695 C-14.3212332 2.08609228 -12.18969736 1.47709494 -10.05859375 0.84765625 C-6.44626637 -0.1534613 -3.72841477 -0.48331303 0 0 Z " fill="#FABD01" transform="translate(385,123)"/>
<path d="M0 0 C7.19373439 1.96142758 7.19373439 1.96142758 9.34423828 2.56640625 C11.3459739 3.12717616 13.35254289 3.66724367 15.36035156 4.20581055 C16.6275 4.55708008 17.89464844 4.90834961 19.20019531 5.27026367 C20.93221191 5.74943237 20.93221191 5.74943237 22.69921875 6.23828125 C25.48382998 7.27345883 26.82872013 7.96630383 28.59082031 10.31323242 C29.26967409 13.38504577 29.15825056 16.2257443 28.59082031 19.31323242 C26.71582031 21.93823242 26.71582031 21.93823242 23.59082031 23.31323242 C15.79445656 23.42706157 8.15746154 21.13035499 0.71582031 19.06323242 C-0.95480469 18.63204102 -0.95480469 18.63204102 -2.65917969 18.19213867 C-10.67713057 15.97995704 -10.67713057 15.97995704 -14.16699219 12.80151367 C-15.9545475 9.22078181 -15.51270044 7.10658501 -14.40917969 3.31323242 C-10.76825875 -2.14814899 -5.92451328 -1.19347292 0 0 Z " fill="#FABD01" transform="translate(51.4091796875,123.686767578125)"/>
<path d="M0 0 C3.17661934 0.14890403 5.52060366 0.37249015 8.4375 1.71875 C10.60239763 4.31662716 10.69089814 6.23560025 11 9.59375 C10.42675781 12.96533203 10.42675781 12.96533203 9.453125 16.6015625 C9.19532257 17.57341995 9.19532257 17.57341995 8.93231201 18.56491089 C8.56815483 19.92620225 8.19803581 21.28591139 7.82226562 22.64404297 C7.25082758 24.71574968 6.70227572 26.79256238 6.15625 28.87109375 C3.09836367 40.20640923 3.09836367 40.20640923 0 43.59375 C-2.65627163 44.6607043 -5.15578471 44.80402273 -8 44.59375 C-11 43.21875 -11 43.21875 -13 40.59375 C-13.67128649 32.74609123 -11.83246823 25.87463513 -9.75 18.34375 C-9.44964844 17.18617187 -9.14929688 16.02859375 -8.83984375 14.8359375 C-8.53691406 13.71960937 -8.23398438 12.60328125 -7.921875 11.453125 C-7.51340332 9.94443848 -7.51340332 9.94443848 -7.09667969 8.40527344 C-5.68590305 4.78850947 -3.90816609 1.16023681 0 0 Z " fill="#FABD01" transform="translate(256,-0.59375)"/>
<path d="M0 0 C2.93392037 0.7793226 4.05140211 2.21715694 6 4.53125 C7.2043457 7.64404297 7.2043457 7.64404297 8.17578125 11.2734375 C8.35006149 11.91942902 8.52434174 12.56542053 8.7039032 13.23098755 C9.06750426 14.5924915 9.42430542 15.95582765 9.7746582 17.32080078 C10.31034498 19.39789405 10.87316455 21.46622354 11.43945312 23.53515625 C11.7907137 24.86414801 12.14037657 26.19356329 12.48828125 27.5234375 C12.80321533 28.72339355 13.11814941 29.92334961 13.44262695 31.15966797 C14.02425316 34.67795878 13.91960474 37.09917027 13 40.53125 C10.875 42.96875 10.875 42.96875 8 44.53125 C4.67530025 44.47392759 2.21663757 44.38717593 -0.5546875 42.4375 C-2.69379996 39.61618411 -3.52294977 36.44676432 -4.5 33.09375 C-4.71358154 32.38089844 -4.92716309 31.66804688 -5.1472168 30.93359375 C-5.77838214 28.80314226 -6.39219466 26.66847029 -7 24.53125 C-7.32613281 23.39558594 -7.65226563 22.25992187 -7.98828125 21.08984375 C-9.50629224 15.45665604 -10.72866591 10.36057726 -10 4.53125 C-7.44699652 0.2762442 -4.60968987 0.0720264 0 0 Z " fill="#FABD01" transform="translate(170,-0.53125)"/>
<path d="M0 0 C1.8827259 3.01236144 2.03930859 5.0157497 2.09375 8.5 C1.31683637 11.4248513 -0.13854795 12.55120222 -2.4375 14.5 C-5.44262695 15.7043457 -5.44262695 15.7043457 -8.92578125 16.67578125 C-10.82166992 17.20461914 -10.82166992 17.20461914 -12.75585938 17.74414062 C-13.41223389 17.91921143 -14.0686084 18.09428223 -14.74487305 18.2746582 C-16.73905292 18.80956363 -18.72362246 19.37280441 -20.70898438 19.93945312 C-21.97677734 20.28556641 -23.24457031 20.63167969 -24.55078125 20.98828125 C-25.70360596 21.30321533 -26.85643066 21.61814941 -28.04418945 21.94262695 C-32.35066164 22.64999266 -36.48266788 22.67289927 -40.3125 20.375 C-42.10917343 17.38054428 -42.37766186 14.97061229 -42.4375 11.5 C-40.27326277 7.46466431 -37.9517266 6.10445006 -33.734375 4.76953125 C-31.89032812 4.26552704 -30.04104379 3.78037239 -28.1875 3.3125 C-26.81271484 2.9422168 -26.81271484 2.9422168 -25.41015625 2.56445312 C-22.75761633 1.85496491 -20.09928462 1.17385662 -17.4375 0.5 C-16.67083008 0.29987305 -15.90416016 0.09974609 -15.11425781 -0.10644531 C-4.58905986 -2.82403684 -4.58905986 -2.82403684 0 0 Z " fill="#FABE01" transform="translate(78.4375,207.5)"/>
<path d="M0 0 C1.9375 1.875 1.9375 1.875 3 4 C3 4.99 3 5.98 3 7 C-2.94 6.67 -8.88 6.34 -15 6 C-9.39519013 -0.72577185 -8.164457 -1.89532038 0 0 Z " fill="#F9BE02" transform="translate(115,272)"/>
</svg>
